Coordinates
version=1
nRows=26
nColumns=24
inDegrees=yes

Units are S.I. units (second, meters, Newtons, ...)
Angles are in degrees.

endheader
time	pelvis_tilt	pelvis_list	pelvis_rotation	pelvis_tx	pelvis_ty	pelvis_tz	hip_flexion_r	hip_adduction_r	hip_rotation_r	knee_angle_r	ankle_angle_r	subtalar_angle_r	mtp_angle_r	hip_flexion_l	hip_adduction_l	hip_rotation_l	knee_angle_l	ankle_angle_l	subtalar_angle_l	mtp_angle_l	lumbar_extension	lumbar_bending	lumbar_rotation
      1.55000000	     65.55530444	     -5.31965737	      2.05647292	      0.64837549	      1.01306581	     -0.21686476	      7.08157954	     -0.87980436	     10.79971227	    -12.31041935	    -27.00270134	     26.83285249	     62.24340419	     -7.91914460	    -14.57943508	      7.02540335	    -43.58156257	     14.12243924	     26.69068858	     24.88993191	      0.00000000	      0.00000000	      0.00000000
      1.56000000	     65.55461246	     -5.30695742	      2.06168287	      0.64837574	      1.01306914	     -0.21687276	      7.07267475	     -0.88414383	     10.80691165	    -12.28957967	    -26.99365807	     26.82495379	     62.18903630	     -7.88789043	    -14.60507364	      7.02980194	    -44.03512950	     14.20591528	     26.60742726	     24.89710502	      0.00000000	      0.00000000	      0.00000000
      1.57000000	     65.55044466	     -5.29492828	      2.06566714	      0.64837251	      1.01307213	     -0.21689032	      7.06907524	     -0.88727108	     10.81290497	    -12.26871690	    -26.98099068	     26.81947295	     62.12976372	     -7.84850251	    -14.63057894	      7.03924198	    -44.49463322	     14.27850367	     26.53044116	     24.90703278	      0.00000000	      0.00000000	      0.00000000
      1.58000000	     65.54519507	     -5.28440841	      2.06958596	      0.64836405	      1.01307705	     -0.21691483	      7.06734938	     -0.88902025	     10.81982758	    -12.24753566	    -26.96563126	     26.81644422	     62.06565125	     -7.80530600	    -14.65634728	      7.05304472	    -44.96056641	     14.34348794	     26.45821951	     24.92173636	      0.00000000	      0.00000000	      0.00000000
      1.59000000	     65.54018306	     -5.27594454	      2.07480321	      0.64835898	      1.01308359	     -0.21694172	      7.06499193	     -0.88974536	     10.82917641	    -12.22636803	    -26.94860468	     26.81531805	     61.99719045	     -7.76153717	    -14.68271773	      7.07001949	    -45.43402658	     14.40511349	     26.38812257	     24.94264777	      0.00000000	      0.00000000	      0.00000000
      1.60000000	     65.53581715	     -5.26954943	      2.08217016	      0.64836472	      1.01309174	     -0.21696820	      7.06072124	     -0.89011388	     10.84158489	    -12.20585067	    -26.93093066	     26.81508930	     61.92528343	     -7.71885102	    -14.70998138	      7.08876689	    -45.91663572	     14.46753338	     26.31717378	     24.97033255	      0.00000000	      0.00000000	      0.00000000
      1.61000000	     65.53196823	     -5.26467817	      2.09184481	      0.64837888	      1.01310253	     -0.21699426	      7.05461518	     -0.89080984	     10.85683511	    -12.18642576	    -26.91354450	     26.81452879	     61.85116488	     -7.67739207	    -14.73828802	      7.10785341	    -46.41030733	     14.53372314	     26.24289284	     25.00432000	      0.00000000	      0.00000000	      0.00000000
      1.62000000	     65.52818994	     -5.26042292	      2.10349835	      0.64839137	      1.01311625	     -0.21702365	      7.04784354	     -0.89221928	     10.87401670	    -12.16802579	    -26.89725931	     26.81244746	     61.77627582	     -7.63628491	    -14.76745627	      7.12582262	    -46.91695056	     14.60472456	     26.16394089	     25.04307317	      0.00000000	      0.00000000	      0.00000000
      1.63000000	     65.52375306	     -5.25584913	      2.11654213	      0.64839554	      1.01313047	     -0.21705941	      7.04199466	     -0.89423690	     10.89177452	    -12.15012027	    -26.88277766	     26.80792292	     61.70211065	     -7.59426657	    -14.79683190	      7.14117839	    -47.43815373	     14.67949528	     26.08041403	     25.08411678	      0.00000000	      0.00000000	      0.00000000
      1.64000000	     65.51775199	     -5.25038703	      2.13011128	      0.64839652	      1.01314352	     -0.21709370	      7.03836078	     -0.89635594	     10.90861899	    -12.13203172	    -26.87072003	     26.80043305	     61.63006414	     -7.55023793	    -14.82536370	      7.15251348	    -47.97487545	     14.75542232	     25.99375149	     25.12432186	      0.00000000	      0.00000000	      0.00000000
      1.65000000	     65.50943475	     -5.24424216	      2.14294873	      0.64840644	      1.01316030	     -0.21711003	      7.03763859	     -0.89808897	     10.92327104	    -12.11325907	    -26.86161818	     26.78987151	     61.56130688	     -7.50367212	    -14.85186302	      7.15877041	    -48.52720114	     14.82930043	     25.90637279	     25.16032329	      0.00000000	      0.00000000	      0.00000000
      1.66000000	     65.49849248	     -5.23853003	      2.15367255	      0.64842953	      1.01318648	     -0.21710754	      7.04014168	     -0.89942093	     10.93499419	    -12.09360006	    -26.85585216	     26.77646186	     61.49671107	     -7.45490359	    -14.87527699	      7.15941530	    -49.09427529	     14.89846084	     25.82121029	     25.18902969	      0.00000000	      0.00000000	      0.00000000
      1.67000000	     65.48494890	     -5.23463555	      2.16152439	      0.64845449	      1.01321366	     -0.21711568	      7.04611466	     -0.90084643	     10.94382322	    -12.07309153	    -26.85355994	     26.76062134	     61.43683328	     -7.40514922	    -14.89496402	      7.15442930	    -49.67443382	     14.96176017	     25.74124591	     25.20816874	      0.00000000	      0.00000000	      0.00000000
      1.68000000	     65.46870304	     -5.23297423	      2.16704380	      0.64846760	      1.01322626	     -0.21715901	      7.05572674	     -0.90292965	     10.95058347	    -12.05190979	    -26.85457536	     26.74283275	     61.38193918	     -7.35607885	    -14.91098156	      7.14422453	    -50.26551873	     15.02018425	     25.66909335	     25.21680056	      0.00000000	      0.00000000	      0.00000000
      1.69000000	     65.44934398	     -5.23225868	      2.17184791	      0.64846989	      1.01322598	     -0.21721716	      7.06881370	     -0.90584972	     10.95664586	    -12.03030798	    -26.85843505	     26.72356197	     61.33204700	     -7.30906217	    -14.92426538	      7.12957546	    -50.86536931	     15.07690902	     25.60664228	     25.21573101	      0.00000000	      0.00000000	      0.00000000
      1.70000000	     65.42671347	     -5.23023831	      2.17741533	      0.64847649	      1.01323245	     -0.21724879	      7.08475944	     -0.90938384	     10.96347135	    -12.00856810	    -26.86445451	     26.70322879	     61.28697661	     -7.26454165	    -14.93641047	      7.11149342	    -51.47232574	     15.13679303	     25.55478657	     25.20774804	      0.00000000	      0.00000000	      0.00000000
      1.71000000	     65.40161551	     -5.22550062	      2.18404129	      0.64849976	      1.01325823	     -0.21723969	      7.10271368	     -0.91322742	     10.97213076	    -11.98693172	    -26.87184259	     26.68221977	     61.24640265	     -7.22206445	    -14.94887115	      7.09088512	    -52.08551511	     15.20538072	     25.51325957	     25.19758912	      0.00000000	      0.00000000	      0.00000000
      1.72000000	     65.37581831	     -5.21874122	      2.19090293	      0.64853539	      1.01329365	     -0.21721060	      7.12195061	     -0.91721416	     10.98301026	    -11.96553782	    -26.87981739	     26.66091978	     61.20991540	     -7.18092845	    -14.96208717	      7.06806149	    -52.70468811	     15.28758313	     25.48057601	     25.19156749	      0.00000000	      0.00000000	      0.00000000
      1.73000000	     65.35126459	     -5.21224428	      2.19689233	      0.64856829	      1.01332108	     -0.21718835	      7.14207996	     -0.92123924	     10.99578537	    -11.94443029	    -26.88770233	     26.63973418	     61.17708608	     -7.14084570	    -14.97541707	      7.04248568	    -53.32946759	     15.38627433	     25.45406894	     25.19684173	      0.00000000	      0.00000000	      0.00000000
      1.74000000	     65.32897129	     -5.20810814	      2.20137492	      0.64858968	      1.01333215	     -0.21718560	      7.16305212	     -0.92507528	     11.00961232	    -11.92364260	    -26.89499304	     26.61908030	     61.14752930	     -7.10226534	    -14.98793978	      7.01303530	    -53.95827784	     15.50104568	     25.43004483	     25.22037780	      0.00000000	      0.00000000	      0.00000000
      1.75000000	     65.30833519	     -5.20682566	      2.20443389	      0.64860413	      1.01332948	     -0.21720043	      7.18506567	     -0.92833713	     11.02342585	    -11.90330031	    -26.90138647	     26.59934146	     61.12096078	     -7.06624179	    -14.99929404	      6.97869287	    -54.58754144	     15.62731238	     25.40411999	     25.26771277	      0.00000000	      0.00000000	      0.00000000
      1.76000000	     65.28745647	     -5.20722170	      2.20667032	      0.64862389	      1.01332877	     -0.21721175	      7.20845333	     -0.93068834	     11.03621932	    -11.88366936	    -26.90677565	     26.58080057	     61.09724370	     -7.03376031	    -15.00984864	      6.93935271	    -55.21170732	     15.75596571	     25.37180112	     25.34168538	      0.00000000	      0.00000000	      0.00000000
      1.77000000	     65.26441060	     -5.20769456	      2.20876584	      0.64865635	      1.01334642	     -0.21719876	      7.23354049	     -0.93217333	     11.04722082	    -11.86511007	    -26.91123553	     26.56359050	     61.07640570	     -7.00484156	    -15.02015515	      6.89630746	    -55.82449714	     15.87381852	     25.32934700	     25.44134319	      0.00000000	      0.00000000	      0.00000000
      1.78000000	     65.23853285	     -5.20749306	      2.21119823	      0.64869560	      1.01338033	     -0.21717136	      7.26042365	     -0.93338665	     11.05596627	    -11.84794720	    -26.91501896	     26.54768958	     61.05861363	     -6.97808703	    -15.03028949	      6.85216472	    -56.42128325	     15.96512490	     25.27489815	     25.56124786	      0.00000000	      0.00000000	      0.00000000
      1.79000000	     65.21093935	     -5.20685500	      2.21431896	      0.64872946	      1.01341536	     -0.21715265	      7.28863189	     -0.93527466	     11.06233170	    -11.83231147	    -26.91854733	     26.53295460	     61.04411341	     -6.95091217	    -15.03965941	      6.81026811	    -57.00167445	     16.01439675	     25.20976711	     25.69136102	      0.00000000	      0.00000000	      0.00000000
      1.80000000	     65.18441840	     -5.20635001	      2.21834651	      0.64875233	      1.01343811	     -0.21714971	      7.31681147	     -0.93865466	     11.06656105	    -11.81800147	    -26.92236047	     26.51915788	     61.03315189	     -6.92023264	    -15.04726996	      6.77383899	    -57.57087295	     16.01057933	     25.13962939	     25.81760312	      0.00000000	      0.00000000	      0.00000000
